<svg id="Layer_1" data-name="Layer 1" xmlns="http://www.w3.org/2000/svg" viewBox="0 0 196.3 69.56"><defs><style>.cls-1{fill:#ffff76}.cls-2{fill:#000075}</style></defs><title>01_RU_Logo-Prim_RGB</title><path class="cls-1" d="M87.87 21.89A15.24 15.24 0 0 0 81.55 20a7.46 7.46 0 0 1-2.24-.47 10.38 10.38 0 0 1-1.31-.71c-2.48-1.42-5.2-2.55-9-.93a34.49 34.49 0 0 0-31.76 5.79 14.18 14.18 0 0 0-11.71 6 15.65 15.65 0 0 1-3.39 3.47c-7.09 5.35-6 10.18-4.73 12.58l.17.33c.91 1.76 3 5.88 6.58 6.86 0 .48.06 1 .12 1.46a34.36 34.36 0 0 0 11 21.82 10 10 0 0 0 15.32 8.13 34.59 34.59 0 0 0 23.2-2.54l.2.06a10 10 0 0 0 12.76-11.07 34.46 34.46 0 0 0 4.62-30.92 17.68 17.68 0 0 0 2.15-5.32c.1-.37.19-.71.28-1 1.03-3.38.84-8.13-5.94-11.65z" transform="translate(-16.55 -16.28)"/><path class="cls-2" d="M60.83 24.87a1 1 0 0 0-1.4-.22 9.67 9.67 0 0 1-8.94.93 1 1 0 1 0-.79 1.84 10.77 10.77 0 0 0 4.3.9 12.05 12.05 0 0 0 6.61-2.05 1 1 0 0 0 .22-1.4zM89.46 42a1 1 0 1 0-1.92.54 30.4 30.4 0 0 1 1 5.07 29.75 29.75 0 0 1-4.07 18.51 1 1 0 1 0 1.72 1 31.73 31.73 0 0 0 4.34-19.74A32.28 32.28 0 0 0 89.46 42zM42.32 25.43a1 1 0 0 0 .53-.15 29.73 29.73 0 0 1 12.69-4.34 30.07 30.07 0 0 1 9.23.45 1 1 0 1 0 .4-2 32.13 32.13 0 0 0-23.38 4.15 1 1 0 0 0 .53 1.89zM28.84 53.91q-.05-.49-.09-1a1 1 0 0 0-2 .14q0 .52.09 1a31.73 31.73 0 0 0 8.3 18.35 1 1 0 1 0 1.47-1.36 29.74 29.74 0 0 1-7.77-17.13zM69.39 78.8c-.36.14-.73.25-1.09.38h-.13a.5.5 0 0 0-.32.17c-.39.12-.78.23-1.17.34a.49.49 0 0 0-.5-.3.5.5 0 0 0-.45.55c-.33.08-.67.14-1 .21a.49.49 0 0 0 0-.11.5.5 0 0 0-1 .1.49.49 0 0 0 .06.2c-.37.06-.74.11-1.1.16a.49.49 0 0 0 0-.25.5.5 0 0 0-1 .1.48.48 0 0 0 .12.26c-.36 0-.72.05-1.09.08a.49.49 0 0 0 0-.24.5.5 0 0 0-1 .1.49.49 0 0 0 .07.2h-1.07a.47.47 0 0 0 0-.1.5.5 0 0 0-1 .1l-1-.06a.49.49 0 0 0-.86-.06c-.59-.05-1.19-.12-1.78-.21a1 1 0 1 0-.3 2 31.9 31.9 0 0 0 4.84.37A32.4 32.4 0 0 0 62 82.6a32.05 32.05 0 0 0 8.09-1.93 1 1 0 1 0-.7-1.87z" transform="translate(-16.55 -16.28)"/><path class="cls-2" d="M76.74 58.5a9.12 9.12 0 0 0 3.33-.72 1 1 0 1 0-.76-1.85c-3.45 1.42-5.47-.21-5.55-.27l-.09-.05c-4-3.39-9.11-5.92-14.94-5.31-6.22.7-10.89 4.7-14.23 9.26a12.83 12.83 0 0 1-8.16 2.13 1 1 0 0 0-.13 2h1.08a15.32 15.32 0 0 0 5-.85 51.34 51.34 0 0 0-4.66 10.68A8 8 0 0 0 53 78.16c1.77-5.8 4.29-8.8 7.71-9.16 3.84-.4 6 1.25 9.13 7.06a8 8 0 1 0 14.09-7.57 49.45 49.45 0 0 0-7.19-9.99zM82.63 74a6 6 0 0 1-1.21 2.18.49.49 0 0 0-.53-.37.5.5 0 0 0-.08 1 6 6 0 0 1-1.09.76 5.86 5.86 0 0 1-6.25-.38.46.46 0 0 0 0-.08.5.5 0 0 0-.55-.45h-.09a6 6 0 0 1-.84-1 .5.5 0 0 0-.27-.94.49.49 0 0 0-.26.12c-.21-.38-.41-.75-.62-1.09a.5.5 0 0 0-.51-.85c-.23-.37-.45-.72-.68-1a.49.49 0 0 0 .21-.45.5.5 0 0 0-.54-.45.49.49 0 0 0-.23.1c-.27-.36-.54-.69-.81-1a.49.49 0 0 0 .39-.53.5.5 0 0 0-1-.1 9 9 0 0 0-2.25-1.69.49.49 0 0 0-.52-.34h-.13a8.84 8.84 0 0 0-4.3-.47 8.12 8.12 0 0 0-3.71 1.33c-2.42 1.7-4.3 4.7-5.69 9.28A6 6 0 0 1 40.25 79a.49.49 0 0 0 .2-.45.5.5 0 0 0-.55-.45h-.1a6 6 0 0 1-.42-3 .49.49 0 0 0 .21 0 .5.5 0 0 0 .41-.52.49.49 0 0 0-.46-.44c.09-.31.22-.72.39-1.23a.49.49 0 0 0 .4.15.5.5 0 0 0-.1-1q.21-.59.47-1.27a.49.49 0 0 0 .42.17.5.5 0 0 0-.1-1c.16-.39.33-.79.51-1.21a.5.5 0 0 0 .82-.44.49.49 0 0 0-.35-.44c.17-.37.35-.76.54-1.14a.49.49 0 0 0 .22 0 .5.5 0 0 0 .45-.55.49.49 0 0 0-.23-.36q.31-.6.65-1.21a.44.44 0 0 0 .34-.6 35.79 35.79 0 0 1 2.67-4 .5.5 0 1 0 .59-.73 24 24 0 0 1 3.46-3.45 2.43 2.43 0 0 0 .07 1 5.36 5.36 0 0 0 1.82 2.51.5.5 0 0 0 .31.25 11.76 11.76 0 0 0 7.46 2.27 9.69 9.69 0 0 0 3.83-1.42.49.49 0 0 0 .39-.28 12 12 0 0 0 2.36-2 .5.5 0 0 0 .44-.55A6.14 6.14 0 0 0 68.63 55a2.6 2.6 0 0 0 0-.49l.8.49a.5.5 0 1 0 .75.49 26.84 26.84 0 0 1 2.27 1.72l.1.08q.7.6 1.36 1.22a.49.49 0 0 0-.33.51.5.5 0 0 0 1 .11 47 47 0 0 1 7.61 10.34 6 6 0 0 1 .69 2.35.49.49 0 0 0-.4-.15.5.5 0 1 0 .1 1 .49.49 0 0 0 .31-.16 6 6 0 0 1-.26 1.49zM52.45 32.62a1 1 0 0 0-1.27 1.55 7.8 7.8 0 0 1 2.26 5.09 1 1 0 0 0 1 .9h.11a1 1 0 0 0 .89-1.1 9.75 9.75 0 0 0-2.99-6.44zM61 31.72a9.73 9.73 0 0 0-1.58 6.91 1 1 0 0 0 1 .9h.08a1 1 0 0 0 .89-1.1A7.8 7.8 0 0 1 62.54 33 1 1 0 0 0 61 31.72zM30.6 45.59c0-.21 0-.45.06-.72.17-2 .44-5.45 3.34-8a9.54 9.54 0 0 1 5.16-2.27 1 1 0 0 0-.1-2h-.46a.5.5 0 1 0-1-.07.49.49 0 0 0 .1.23 11.67 11.67 0 0 0-5 2.55 10.85 10.85 0 0 0-1.7 1.87.49.49 0 0 0-.51-.31.5.5 0 0 0-.45.55.49.49 0 0 0 .49.44A11 11 0 0 0 30 39a.49.49 0 0 0-.67.52.49.49 0 0 0 .29.39c-.15.41-.28.81-.38 1.2a.49.49 0 0 0-.25 0 .5.5 0 0 0-.44.55.49.49 0 0 0 .45.34 23.56 23.56 0 0 0-.33 2.67c0 .25 0 .47-.06.67-.23 2.12-.69 3.41-2.38 3.72-2.29.44-4.27-3.42-5-4.87l-.23-.34a3.65 3.65 0 0 1-.4-1.26.49.49 0 0 0 .5.3.5.5 0 1 0-.1-1 .49.49 0 0 0-.43.41 5.61 5.61 0 0 1 1.67-3.8.49.49 0 0 0 .44.2.5.5 0 0 0 .45-.55.49.49 0 0 0-.22-.35 17.82 17.82 0 0 1 1.7-1.45l.39-.27a.49.49 0 0 0 .51.32.5.5 0 0 0 .44-.55.49.49 0 0 0-.23-.36 18 18 0 0 0 2-2 .5.5 0 1 0 .43-.36.49.49 0 0 0-.17.05c.3-.36.56-.71.82-1l.1-.12A.49.49 0 0 0 29 32a.5.5 0 0 0 .45-.55.49.49 0 0 0 0-.15 8.09 8.09 0 0 1 1.94-1.79.49.49 0 0 0 .44.19.5.5 0 0 0 .44-.55.49.49 0 0 0 0-.14 10.23 10.23 0 0 1 7.33-1.1.49.49 0 0 0-.32.51.5.5 0 1 0 1-.1A.49.49 0 0 0 40 28c.38.09.78.2 1.19.33a.49.49 0 0 0 .7.25 22.6 22.6 0 0 1 2.47 1.09.49.49 0 0 0 0 .21.5.5 0 0 0 .89.25c.35.2.71.39 1.07.61a1 1 0 1 0 1-1.71c-8.81-5.33-14-3.24-17.12-1.21a11.71 11.71 0 0 0-3.08 3.06 17.77 17.77 0 0 1-3.78 3.85c-5.61 4.23-5.36 7.8-4.17 10l.19.36c.95 1.84 3.08 6 6.4 6a4.09 4.09 0 0 0 .77-.07c3.55-.61 3.92-4.02 4.07-5.43zM86.95 23.67a13.33 13.33 0 0 0-5.6-1.72 9.26 9.26 0 0 1-2.76-.6 11.61 11.61 0 0 1-1.55-.8c-2.57-1.48-5.77-3.31-12.22 2.74a1 1 0 1 0 1.37 1.46c.59-.56 1.14-1 1.66-1.43a.48.48 0 0 0 0 .09.5.5 0 0 0 1-.1.49.49 0 0 0-.39-.43c3.69-2.68 5.56-1.75 7.46-.66a.5.5 0 1 0 .86.48 9.58 9.58 0 0 0 1.11.53 10.39 10.39 0 0 0 1.61.48.5.5 0 1 0 .55.44.49.49 0 0 0-.28-.39c.46.09.88.13 1.29.17A.48.48 0 0 0 81 24a.5.5 0 0 0 .55.45A.49.49 0 0 0 82 24a11.68 11.68 0 0 1 4 1.44l.14.08a.47.47 0 0 0 .68.38c2.68 1.6 3.42 3.24 3.43 4.71h-.04a.5.5 0 0 0-.44.55.49.49 0 0 0 .42.43 7.36 7.36 0 0 1-.2.78l-.14.5a.49.49 0 0 0-.42-.17.5.5 0 0 0 .1 1h.1c-.14.53-.29 1.05-.45 1.54a.5.5 0 1 0-.44.58.49.49 0 0 0 .26-.18 9.36 9.36 0 0 1-.67 1.56.49.49 0 0 0-.51-.32.5.5 0 0 0-.44.55.49.49 0 0 0 .47.44 1.5 1.5 0 0 1-1.5.53c-1.44-.33-2.12-1.12-3.35-3.4-.28-.5-.5-.93-.69-1.31a7.63 7.63 0 0 0-2.69-3.31.49.49 0 0 0 0-.23.5.5 0 0 0-.55-.44.49.49 0 0 0-.28.14c-.44-.28-.94-.57-1.52-.9-.28-.16-.56-.29-.84-.42a.5.5 0 0 0-.55-.45.49.49 0 0 0-.3.15 11.63 11.63 0 0 0-4.64-.67.49.49 0 0 0 .31-.51.5.5 0 1 0-.61.53h-.18a1 1 0 0 0 .32 2 9.4 9.4 0 0 1 5.52 1.15c.71.39 1.27.73 1.72 1a5.69 5.69 0 0 0-3.54 1.44 1 1 0 1 0 1.32 1.5 4.33 4.33 0 0 1 4.43-.59l.27.52c.21.41.44.86.74 1.39 1.29 2.26 2.31 3.78 4.73 4.32a4 4 0 0 0 .87.1c3.06 0 4.12-4 4.77-6.44.11-.4.2-.76.3-1.07 1.18-3.85-.44-6.9-4.96-9.23zM51.29 48.53a1 1 0 0 0 .59-.19C52.12 48.16 58 44 64.82 47a1 1 0 1 0 .79-1.84C57.67 41.73 51 46.52 50.7 46.72a1 1 0 0 0 .59 1.81zM76 43.47a5 5 0 1 0 5.5 4.45 5 5 0 0 0-5.5-4.45zm1.55 4.91A1.25 1.25 0 1 1 78.64 47a1.25 1.25 0 0 1-1.12 1.39zM41.25 57.18a5 5 0 1 0-5.5-4.45 5 5 0 0 0 5.5 4.45zm.21-7.51A1.25 1.25 0 1 1 40.35 51a1.25 1.25 0 0 1 1.11-1.33zM68.91 41.27a1 1 0 0 0 1.4.18A9.61 9.61 0 0 1 79.22 40a1 1 0 0 0 .73-1.86 12 12 0 0 0-7-.26 11.11 11.11 0 0 0-3.89 1.95 1 1 0 0 0-.15 1.44z" transform="translate(-16.55 -16.28)"/><path class="cls-2" d="M34 45.95a1 1 0 0 0 1.41.13 9.63 9.63 0 0 1 8.85-1.73 1 1 0 0 0 .74-1.89 9.84 9.84 0 0 0-1.77-.4 11.41 11.41 0 0 0-9 2.47 1 1 0 0 0-.23 1.42zM37 38.88a1 1 0 0 0 .92.62 1 1 0 0 0 .38-.08 10.63 10.63 0 0 1 4.66-.7 1 1 0 0 0 .23-2 12.52 12.52 0 0 0-5.66.84 1 1 0 0 0-.53 1.32z" transform="translate(-16.55 -16.28)"/><circle class="cls-2" cx="41.94" cy="78.41" r=".5" transform="rotate(-6 -121.685 228.104)"/><circle class="cls-2" cx="40.74" cy="76.52" r=".5" transform="rotate(-6 -122.83 226.227)"/><circle class="cls-2" cx="42.73" cy="76.31" r=".5" transform="rotate(-6 -120.812 226.045)"/><circle class="cls-2" cx="41.53" cy="74.43" r=".5" transform="rotate(-6 -121.962 224.263)"/><circle class="cls-2" cx="43.52" cy="74.22" r=".5" transform="rotate(-6 -120.034 223.981)"/><circle class="cls-2" cx="45.5" cy="74.01" r=".5" transform="rotate(-6 -118.106 223.7)"/><circle class="cls-2" cx="47.49" cy="73.8" r=".5" transform="rotate(-6 -116.088 223.519)"/><circle class="cls-2" cx="49.48" cy="73.59" r=".5" transform="rotate(-6 -114.07 223.337)"/><circle class="cls-2" cx="51.47" cy="73.38" r=".5" transform="rotate(-6 -112.141 223.056)"/><circle class="cls-2" cx="50.27" cy="71.5" r=".5" transform="rotate(-6 -113.286 221.178)"/><circle class="cls-2" cx="48.28" cy="71.71" r=".5" transform="rotate(-6 -115.31 221.455)"/><circle class="cls-2" cx="46.29" cy="71.92" r=".5" transform="rotate(-6 -117.328 221.636)"/><circle class="cls-2" cx="44.3" cy="72.13" r=".5" transform="rotate(-6 -119.251 221.822)"/><circle class="cls-2" cx="42.31" cy="72.33" r=".5" transform="rotate(-6 -121.18 222.104)"/><circle class="cls-2" cx="43.1" cy="70.24" r=".5" transform="rotate(-6 -120.492 219.94)"/><circle class="cls-2" cx="45.09" cy="70.03" r=".5" transform="rotate(-6 -118.474 219.758)"/><circle class="cls-2" cx="47.08" cy="69.82" r=".5" transform="rotate(-6 -116.55 219.572)"/><circle class="cls-2" cx="49.06" cy="69.61" r=".5" transform="rotate(-6 -114.527 219.295)"/><circle class="cls-2" cx="51.05" cy="69.4" r=".5" transform="rotate(-6.03 -111.736 218.296)"/><circle class="cls-2" cx="53.04" cy="69.2" r=".5" transform="rotate(-6 -110.495 219.028)"/><circle class="cls-2" cx="52.26" cy="71.29" r=".5" transform="rotate(-6 -111.268 220.997)"/><circle class="cls-2" cx="51.84" cy="67.31" r=".5" transform="rotate(-6 -111.73 217.05)"/><circle class="cls-2" cx="49.85" cy="67.52" r=".5" transform="rotate(-6 -113.75 217.231)"/><circle class="cls-2" cx="47.86" cy="67.73" r=".5" transform="rotate(-6 -115.672 217.418)"/><circle class="cls-2" cx="45.87" cy="67.94" r=".5" transform="rotate(-6 -117.696 217.694)"/><circle class="cls-2" cx="43.88" cy="68.15" r=".5" transform="rotate(-6 -119.714 217.876)"/><circle class="cls-2" cx="44.67" cy="66.05" r=".5" transform="rotate(-6 -118.841 215.817)"/><circle class="cls-2" cx="46.66" cy="65.84" r=".5" transform="rotate(-6 -116.913 215.535)"/><circle class="cls-2" cx="48.65" cy="65.64" r=".5" transform="rotate(-6.03 -114.205 214.548)"/><circle class="cls-2" cx="50.64" cy="65.43" r=".5" transform="rotate(-6 -112.971 215.168)"/><circle class="cls-2" cx="52.62" cy="65.22" r=".5" transform="rotate(-6 -110.948 214.89)"/><circle class="cls-2" cx="54.61" cy="65.01" r=".5" transform="rotate(-6 -108.93 214.71)"/><circle class="cls-2" cx="56.6" cy="64.8" r=".5" transform="rotate(-6 -106.91 214.528)"/><circle class="cls-2" cx="58.59" cy="64.59" r=".5" transform="rotate(-6 -104.988 214.342)"/><circle class="cls-2" cx="60.58" cy="64.38" r=".5" transform="rotate(-6 -102.97 214.161)"/><circle class="cls-2" cx="62.57" cy="64.17" r=".5" transform="rotate(-6 -101.04 213.88)"/><circle class="cls-2" cx="64.56" cy="63.96" r=".5" transform="rotate(-6 -98.927 213.703)"/><circle class="cls-2" cx="66.55" cy="63.75" r=".5" transform="rotate(-6 -96.999 213.422)"/><circle class="cls-2" cx="68.54" cy="63.55" r=".5" transform="rotate(-6 -94.985 213.336)"/><circle class="cls-2" cx="70.53" cy="63.34" r=".5" transform="rotate(-6 -93.057 213.054)"/><circle class="cls-2" cx="72.51" cy="63.13" r=".5" transform="rotate(-6 -91.039 212.873)"/><circle class="cls-2" cx="74.5" cy="62.92" r=".5" transform="rotate(-6 -89.11 212.591)"/><circle class="cls-2" cx="76.49" cy="62.71" r=".5" transform="rotate(-6 -87.002 212.51)"/><circle class="cls-2" cx="53.83" cy="67.1" r=".5" transform="rotate(-6 -109.802 216.769)"/><circle class="cls-2" cx="55.82" cy="66.89" r=".5" transform="rotate(-6 -107.784 216.587)"/><circle class="cls-2" cx="57.81" cy="66.68" r=".5" transform="rotate(-6 -105.765 216.406)"/><circle class="cls-2" cx="59.8" cy="66.47" r=".5" transform="rotate(-6 -103.842 216.22)"/><circle class="cls-2" cx="61.78" cy="66.27" r=".5" transform="rotate(-6 -101.819 215.943)"/><circle class="cls-2" cx="63.77" cy="66.06" r=".5" transform="rotate(-6.01 -99.563 215.495)"/><circle class="cls-2" cx="65.76" cy="65.85" r=".5" transform="rotate(-6 -97.877 215.576)"/><circle class="cls-2" cx="67.75" cy="65.64" r=".5" transform="rotate(-6 -95.763 215.4)"/><circle class="cls-2" cx="69.74" cy="65.43" r=".5" transform="rotate(-6 -93.745 215.218)"/><circle class="cls-2" cx="55.03" cy="68.99" r=".5" transform="rotate(-6 -108.471 218.752)"/><circle class="cls-2" cx="60.21" cy="70.45" r=".5" transform="rotate(-6 -103.29 220.267)"/><circle class="cls-2" cx="62.2" cy="70.24" r=".5" transform="rotate(-6 -101.36 219.985)"/><circle class="cls-2" cx="57.44" cy="72.76" r=".5" transform="rotate(-6 -106.18 222.507)"/><circle class="cls-2" cx="59.43" cy="72.55" r=".5" transform="rotate(-6 -104.157 222.23)"/><circle class="cls-2" cx="61.42" cy="72.34" r=".5" transform="rotate(-6 -102.139 222.05)"/><circle class="cls-2" cx="63.41" cy="72.13" r=".5" transform="rotate(-6 -100.12 221.868)"/><circle class="cls-2" cx="65.39" cy="71.92" r=".5" transform="rotate(-6 -98.192 221.586)"/><circle class="cls-2" cx="56.65" cy="74.85" r=".5" transform="rotate(-6 -106.959 224.571)"/><circle class="cls-2" cx="58.64" cy="74.64" r=".5" transform="rotate(-6 -104.94 224.39)"/><circle class="cls-2" cx="60.63" cy="74.43" r=".5" transform="rotate(-6.03 -102.199 223.367)"/><circle class="cls-2" cx="62.62" cy="74.22" r=".5" transform="rotate(-6 -100.994 223.927)"/><circle class="cls-2" cx="64.61" cy="74.01" r=".5" transform="rotate(-6 -98.975 223.746)"/><circle class="cls-2" cx="66.6" cy="73.8" r=".5" transform="rotate(-6.01 -96.725 223.285)"/><circle class="cls-2" cx="55.87" cy="76.94" r=".5" transform="rotate(-6 -107.736 226.635)"/><circle class="cls-2" cx="57.86" cy="76.73" r=".5" transform="rotate(-6 -105.718 226.454)"/><circle class="cls-2" cx="59.85" cy="76.52" r=".5" transform="rotate(-6 -103.795 226.268)"/><circle class="cls-2" cx="61.83" cy="76.32" r=".5" transform="rotate(-6 -101.771 225.99)"/><circle class="cls-2" cx="63.82" cy="76.11" r=".5" transform="rotate(-6 -99.753 225.81)"/><circle class="cls-2" cx="65.81" cy="75.9" r=".5" transform="rotate(-6 -97.734 225.629)"/><circle class="cls-2" cx="55.08" cy="79.04" r=".5" transform="rotate(-6 -108.52 228.794)"/><circle class="cls-2" cx="57.07" cy="78.83" r=".5" transform="rotate(-6.01 -106.248 228.229)"/><circle class="cls-2" cx="59.06" cy="78.62" r=".5" transform="rotate(-6 -104.573 228.331)"/><circle class="cls-2" cx="61.05" cy="78.41" r=".5" transform="rotate(-6 -102.554 228.15)"/><circle class="cls-2" cx="63.04" cy="78.2" r=".5" transform="rotate(-6 -100.53 227.874)"/><circle class="cls-2" cx="65.03" cy="77.99" r=".5" transform="rotate(-6 -98.608 227.687)"/><circle class="cls-2" cx="67.02" cy="77.78" r=".5" transform="rotate(-6 -96.589 227.506)"/><circle class="cls-2" cx="69.01" cy="77.57" r=".5" transform="rotate(-6 -94.57 227.325)"/><circle class="cls-2" cx="67.8" cy="75.69" r=".5" transform="rotate(-6 -95.806 225.347)"/><circle class="cls-2" cx="71.73" cy="65.22" r=".5" transform="rotate(-6 -91.817 214.937)"/><circle class="cls-2" cx="73.72" cy="65.01" r=".5" transform="rotate(-6 -89.893 214.75)"/><circle class="cls-2" cx="75.71" cy="64.8" r=".5" transform="rotate(-6 -87.875 214.57)"/><circle class="cls-2" cx="66.97" cy="67.73" r=".5" transform="rotate(-6 -96.546 217.559)"/><circle class="cls-2" cx="68.95" cy="67.52" r=".5" transform="rotate(-6 -94.523 217.282)"/><circle class="cls-2" cx="70.94" cy="67.31" r=".5" transform="rotate(-6.01 -92.37 216.732)"/><circle class="cls-2" cx="72.93" cy="67.1" r=".5" transform="rotate(-6 -90.671 216.815)"/><circle class="cls-2" cx="74.92" cy="66.9" r=".5" transform="rotate(-6 -88.653 216.633)"/><circle class="cls-2" cx="76.91" cy="66.69" r=".5" transform="rotate(-6 -86.725 216.352)"/><circle class="cls-2" cx="70.16" cy="69.41" r=".5" transform="rotate(-6 -93.473 219.155)"/><circle class="cls-2" cx="72.15" cy="69.2" r=".5" transform="rotate(-6 -91.359 218.979)"/><circle class="cls-2" cx="74.14" cy="68.99" r=".5" transform="rotate(-6 -89.43 218.697)"/><circle class="cls-2" cx="76.13" cy="68.78" r=".5" transform="rotate(-6 -87.508 218.511)"/><circle class="cls-2" cx="71.36" cy="71.29" r=".5" transform="rotate(-6 -92.232 221.038)"/><circle class="cls-2" cx="73.35" cy="71.08" r=".5" transform="rotate(-6 -90.213 220.857)"/><circle class="cls-2" cx="75.34" cy="70.87" r=".5" transform="rotate(-6 -88.285 220.575)"/><circle class="cls-2" cx="77.33" cy="70.67" r=".5" transform="rotate(-6 -86.267 220.394)"/><circle class="cls-2" cx="72.57" cy="73.18" r=".5" transform="rotate(-6 -90.991 222.92)"/><circle class="cls-2" cx="74.55" cy="72.97" r=".5" transform="rotate(-6 -89.063 222.639)"/><circle class="cls-2" cx="76.54" cy="72.76" r=".5" transform="rotate(-6 -87.045 222.458)"/><circle class="cls-2" cx="78.53" cy="72.55" r=".5" transform="rotate(-6 -84.936 222.377)"/><circle class="cls-2" cx="78.11" cy="68.57" r=".5" transform="rotate(-6 -85.489 218.33)"/><circle class="cls-2" cx="77.7" cy="64.59" r=".5" transform="rotate(-6 -85.851 214.293)"/><circle class="cls-2" cx="51.42" cy="63.33" r=".5" transform="rotate(-6 -112.188 213.008)"/><circle class="cls-2" cx="49.43" cy="63.54" r=".5" transform="rotate(-6 -114.117 213.29)"/><circle class="cls-2" cx="47.44" cy="63.75" r=".5" transform="rotate(-6 -116.135 213.471)"/><circle class="cls-2" cx="45.45" cy="63.96" r=".5" transform="rotate(-6 -118.063 213.753)"/><circle class="cls-2" cx="46.24" cy="61.87" r=".5" transform="rotate(-6 -117.376 211.588)"/><circle class="cls-2" cx="48.23" cy="61.66" r=".5" transform="rotate(-6 -115.357 211.407)"/><circle class="cls-2" cx="50.22" cy="61.45" r=".5" transform="rotate(-6 -113.334 211.13)"/><circle class="cls-2" cx="52.21" cy="61.24" r=".5" transform="rotate(-6 -111.41 210.944)"/><circle class="cls-2" cx="54.2" cy="61.03" r=".5" transform="rotate(-6.01 -109.138 210.503)"/><circle class="cls-2" cx="66.13" cy="59.78" r=".5" transform="rotate(-6 -97.462 209.475)"/><circle class="cls-2" cx="68.12" cy="59.57" r=".5" transform="rotate(-6 -95.443 209.294)"/><circle class="cls-2" cx="70.11" cy="59.36" r=".5" transform="rotate(-6 -93.425 209.113)"/><circle class="cls-2" cx="72.1" cy="59.15" r=".5" transform="rotate(-6 -91.497 208.83)"/><circle class="cls-2" cx="53.41" cy="63.12" r=".5" transform="rotate(-6 -110.17 212.827)"/><circle class="cls-2" cx="55.4" cy="62.91" r=".5" transform="rotate(-6 -108.151 212.646)"/><circle class="cls-2" cx="57.39" cy="62.71" r=".5" transform="rotate(-6 -106.133 212.465)"/><circle class="cls-2" cx="59.38" cy="62.5" r=".5" transform="rotate(-6 -104.205 212.183)"/><circle class="cls-2" cx="61.37" cy="62.29" r=".5" transform="rotate(-6.01 -101.945 211.74)"/><circle class="cls-2" cx="63.36" cy="62.08" r=".5" transform="rotate(-6 -100.263 211.815)"/><circle class="cls-2" cx="65.34" cy="61.87" r=".5" transform="rotate(-6 -98.24 211.539)"/><circle class="cls-2" cx="67.33" cy="61.66" r=".5" transform="rotate(-6 -96.221 211.358)"/><circle class="cls-2" cx="69.32" cy="61.45" r=".5" transform="rotate(-6 -94.298 211.171)"/><circle class="cls-2" cx="71.31" cy="61.24" r=".5" transform="rotate(-6 -92.28 210.99)"/><circle class="cls-2" cx="73.3" cy="61.03" r=".5" transform="rotate(-6 -90.166 210.814)"/><circle class="cls-2" cx="75.29" cy="60.82" r=".5" transform="rotate(-6 -88.237 210.532)"/><circle class="cls-2" cx="51" cy="59.35" r=".5" transform="rotate(-6 -112.56 209.162)"/><circle class="cls-2" cx="49.01" cy="59.56" r=".5" transform="rotate(-6 -114.574 209.248)"/><circle class="cls-2" cx="49.8" cy="57.47" r=".5" transform="rotate(-6 -113.797 207.184)"/><circle class="cls-2" cx="68.9" cy="57.47" r=".5" transform="rotate(-6 -94.665 207.23)"/><circle class="cls-2" cx="85.92" cy="37.59" r=".5" transform="rotate(-6 -77.643 187.266)"/><circle class="cls-2" cx="86.7" cy="35.49" r=".5" transform="rotate(-6 -76.865 185.202)"/><circle class="cls-2" cx="84.71" cy="35.7" r=".5" transform="rotate(-6 -78.793 185.484)"/><circle class="cls-2" cx="83.51" cy="33.82" r=".5" transform="rotate(-6 -80.124 183.501)"/><circle class="cls-2" cx="85.5" cy="33.61" r=".5" transform="rotate(-6 -78.105 183.32)"/><circle class="cls-2" cx="87.49" cy="33.4" r=".5" transform="rotate(-6 -76.087 183.139)"/><circle class="cls-2" cx="88.27" cy="31.31" r=".5" transform="rotate(-6 -75.31 181.075)"/><circle class="cls-2" cx="86.29" cy="31.51" r=".5" transform="rotate(-6 -77.328 181.256)"/><circle class="cls-2" cx="84.3" cy="31.72" r=".5" transform="rotate(-6 -79.346 181.437)"/><circle class="cls-2" cx="82.31" cy="31.93" r=".5" transform="rotate(-6 -81.27 181.623)"/><circle class="cls-2" cx="81.1" cy="30.05" r=".5" transform="rotate(-6 -82.51 179.74)"/><circle class="cls-2" cx="83.09" cy="29.84" r=".5" transform="rotate(-6 -80.491 179.56)"/><circle class="cls-2" cx="85.08" cy="29.63" r=".5" transform="rotate(-6 -78.473 179.378)"/><circle class="cls-2" cx="87.07" cy="29.42" r=".5" transform="rotate(-6 -76.55 179.192)"/><circle class="cls-2" cx="89.06" cy="29.21" r=".5" transform="rotate(-6 -74.436 179.016)"/><circle class="cls-2" cx="87.86" cy="27.33" r=".5" transform="rotate(-6 -75.767 177.033)"/><circle class="cls-2" cx="85.87" cy="27.54" r=".5" transform="rotate(-6.01 -77.486 177.018)"/><circle class="cls-2" cx="83.88" cy="27.75" r=".5" transform="rotate(-6 -79.714 177.495)"/><circle class="cls-2" cx="81.89" cy="27.95" r=".5" transform="rotate(-6 -81.732 177.677)"/><circle class="cls-2" cx="79.9" cy="28.16" r=".5" transform="rotate(-6 -83.655 177.863)"/><circle class="cls-2" cx="77.91" cy="28.37" r=".5" transform="rotate(-6.03 -84.925 177.347)"/><circle class="cls-2" cx="76.71" cy="26.49" r=".5" transform="rotate(-6 -86.92 176.257)"/><circle class="cls-2" cx="74.72" cy="26.7" r=".5" transform="rotate(-6 -88.843 176.443)"/><circle class="cls-2" cx="72.73" cy="26.91" r=".5" transform="rotate(-6 -90.861 176.624)"/><circle class="cls-2" cx="78.7" cy="26.28" r=".5" transform="rotate(-6.01 -84.68 175.78)"/><circle class="cls-2" cx="80.69" cy="26.07" r=".5" transform="rotate(-6 -82.877 175.799)"/><circle class="cls-2" cx="82.68" cy="25.86" r=".5" transform="rotate(-6 -80.859 175.618)"/><circle class="cls-2" cx="84.66" cy="25.65" r=".5" transform="rotate(-6 -78.93 175.336)"/><circle class="cls-2" cx="77.49" cy="24.39" r=".5" transform="rotate(-6 -86.137 174.097)"/><circle class="cls-2" cx="75.5" cy="24.6" r=".5" transform="rotate(-6 -87.97 174.384)"/><circle class="cls-2" cx="73.52" cy="24.81" r=".5" transform="rotate(-6 -90.083 174.56)"/><circle class="cls-2" cx="71.53" cy="25.02" r=".5" transform="rotate(-6 -92.102 174.741)"/><circle class="cls-2" cx="69.54" cy="25.23" r=".5" transform="rotate(-6 -94.025 174.928)"/><circle class="cls-2" cx="67.55" cy="25.44" r=".5" transform="rotate(-6 -96.048 175.204)"/><circle class="cls-2" cx="26.67" cy="47.84" r=".5" transform="rotate(-6 -136.927 197.649)"/><circle class="cls-2" cx="24.68" cy="48.04" r=".5" transform="rotate(-6 -138.94 197.734)"/><circle class="cls-2" cx="23.47" cy="46.16" r=".5" transform="rotate(-6.01 -139.875 195.614)"/><circle class="cls-2" cx="22.27" cy="44.28" r=".5" transform="rotate(-6 -141.236 194.074)"/><circle class="cls-2" cx="24.26" cy="44.07" r=".5" transform="rotate(-6 -139.308 193.793)"/><circle class="cls-2" cx="26.25" cy="43.86" r=".5" transform="rotate(-6 -137.29 193.612)"/><circle class="cls-2" cx="28.24" cy="43.65" r=".5" transform="rotate(-6 -135.361 193.33)"/><circle class="cls-2" cx="27.03" cy="41.76" r=".5" transform="rotate(-6 -136.506 191.452)"/><circle class="cls-2" cx="25.04" cy="41.97" r=".5" transform="rotate(-6 -138.53 191.729)"/><circle class="cls-2" cx="23.05" cy="42.18" r=".5" transform="rotate(-6 -140.548 191.91)"/><circle class="cls-2" cx="21.85" cy="40.3" r=".5" transform="rotate(-6 -141.694 190.032)"/><circle class="cls-2" cx="23.84" cy="40.09" r=".5" transform="rotate(-6 -139.77 189.846)"/><circle class="cls-2" cx="25.83" cy="39.88" r=".5" transform="rotate(-6 -137.747 189.57)"/><circle class="cls-2" cx="27.82" cy="39.67" r=".5" transform="rotate(-6.01 -135.524 189.157)"/><circle class="cls-2" cx="28.6" cy="37.58" r=".5" transform="rotate(-6 -134.95 187.324)"/><circle class="cls-2" cx="26.61" cy="37.79" r=".5" transform="rotate(-6.03 -136.157 186.738)"/><circle class="cls-2" cx="24.63" cy="38" r=".5" transform="rotate(-6 -138.897 187.787)"/><circle class="cls-2" cx="27.4" cy="35.69" r=".5" transform="rotate(-6 -136.191 185.442)"/><circle class="cls-2" cx="29.39" cy="35.48" r=".5" transform="rotate(-6 -134.168 185.165)"/><circle class="cls-2" cx="31.38" cy="35.27" r=".5" transform="rotate(-6 -132.245 184.979)"/><circle class="cls-2" cx="36.14" cy="32.76" r=".5" transform="rotate(-6 -127.425 182.457)"/><circle class="cls-2" cx="34.15" cy="32.97" r=".5" transform="rotate(-6 -129.353 182.739)"/><circle class="cls-2" cx="32.16" cy="33.18" r=".5" transform="rotate(-6 -131.371 182.92)"/><circle class="cls-2" cx="30.17" cy="33.39" r=".5" transform="rotate(-6 -133.39 183.101)"/><circle class="cls-2" cx="30.96" cy="31.3" r=".5" transform="rotate(-6.03 -131.815 180.208)"/><circle class="cls-2" cx="32.95" cy="31.09" r=".5" transform="rotate(-6 -130.594 180.856)"/><circle class="cls-2" cx="34.94" cy="30.88" r=".5" transform="rotate(-6 -128.665 180.574)"/><circle class="cls-2" cx="36.93" cy="30.67" r=".5" transform="rotate(-6 -126.647 180.393)"/><circle class="cls-2" cx="38.92" cy="30.46" r=".5" transform="rotate(-6 -124.628 180.212)"/><circle class="cls-2" cx="40.91" cy="30.25" r=".5" transform="rotate(-6 -122.7 179.93)"/><circle class="cls-2" cx="42.89" cy="30.04" r=".5" transform="rotate(-6 -120.682 179.75)"/><circle class="cls-2" cx="37.71" cy="28.58" r=".5" transform="rotate(-6 -125.87 178.33)"/><circle class="cls-2" cx="35.72" cy="28.78" r=".5" transform="rotate(-6.03 -127.114 177.695)"/><circle class="cls-2" cx="33.73" cy="28.99" r=".5" transform="rotate(-6 -129.81 178.697)"/><circle class="cls-2" cx="25.46" cy="45.95" r=".5" transform="rotate(-6 -138.067 195.675)"/><circle class="cls-2" cx="27.45" cy="45.74" r=".5" transform="rotate(-6 -136.144 195.49)"/><circle class="cls-2" cx="70.32" cy="23.14" r=".5" transform="rotate(-6 -93.247 172.864)"/><circle class="cls-2" cx="72.31" cy="22.93" r=".5" transform="rotate(-6 -91.228 172.683)"/><circle class="cls-2" cx="74.3" cy="22.72" r=".5" transform="rotate(-6 -89.305 172.496)"/><circle class="cls-2" cx="70.89" cy="57.26" r=".5" transform="rotate(-6 -92.647 207.049)"/><circle class="cls-2" cx="73.77" cy="75.06" r=".5" transform="rotate(-6 -89.846 224.798)"/><circle class="cls-2" cx="75.76" cy="74.85" r=".5" transform="rotate(-6 -87.828 224.617)"/><circle class="cls-2" cx="77.75" cy="74.64" r=".5" transform="rotate(-6 -85.9 224.335)"/><circle class="cls-2" cx="74.97" cy="76.95" r=".5" transform="rotate(-6 -88.605 226.68)"/><circle class="cls-2" cx="76.96" cy="76.74" r=".5" transform="rotate(-6 -86.677 226.4)"/><circle class="cls-2" cx="78.95" cy="76.53" r=".5" transform="rotate(-6 -84.659 226.218)"/><circle class="cls-2" cx="78.9" cy="66.48" r=".5" transform="rotate(-6 -84.706 216.17)"/><circle class="cls-2" cx="80.1" cy="68.36" r=".5" transform="rotate(-6 -83.47 218.149)"/><circle class="cls-2" cx="79.32" cy="70.46" r=".5" transform="rotate(-6 -84.248 220.213)"/><circle class="cls-2" cx="81.31" cy="70.25" r=".5" transform="rotate(-6 -82.32 219.93)"/><circle class="cls-2" cx="80.52" cy="72.34" r=".5" transform="rotate(-6 -83.008 222.095)"/><circle class="cls-2" cx="79.74" cy="74.43" r=".5" transform="rotate(-6 -83.88 224.154)"/><circle class="cls-2" cx="81.73" cy="74.22" r=".5" transform="rotate(-6 -81.767 223.978)"/><circle class="cls-2" cx="44.72" cy="76.1" r=".5" transform="rotate(-6 -118.884 225.764)"/><circle class="cls-2" cx="46.71" cy="75.89" r=".5" transform="rotate(-6 -116.775 225.683)"/><circle class="cls-2" cx="48.7" cy="75.69" r=".5" transform="rotate(-6 -114.847 225.401)"/><circle class="cls-2" cx="50.69" cy="75.48" r=".5" transform="rotate(-6 -112.828 225.22)"/><circle class="cls-2" cx="49.9" cy="77.57" r=".5" transform="rotate(-6.01 -113.442 226.992)"/><circle class="cls-2" cx="43.15" cy="80.29" r=".5" transform="rotate(-6 -120.445 229.987)"/><circle class="cls-2" cx="45.14" cy="80.08" r=".5" transform="rotate(-6 -118.426 229.806)"/><circle class="cls-2" cx="43.93" cy="78.2" r=".5" transform="rotate(-6 -119.667 227.923)"/><circle class="cls-2" cx="45.92" cy="77.99" r=".5" transform="rotate(-6 -117.643 227.646)"/><circle class="cls-2" cx="47.13" cy="79.87" r=".5" transform="rotate(-6 -116.503 229.62)"/><circle class="cls-2" cx="49.12" cy="79.66" r=".5" transform="rotate(-6 -114.48 229.343)"/><circle class="cls-2" cx="47.91" cy="77.78" r=".5" transform="rotate(-6 -115.63 227.56)"/><path class="cls-2" d="M135.26 50.55c2.7 0 5.66-.85 7.27-3.24L139.09 45a4.41 4.41 0 0 1-3.48 1.5c-1.67 0-3.69-.92-3.92-2.76h11.67c0-.41.07-1 .07-1.37a8.24 8.24 0 1 0-16.48-.14 8.11 8.11 0 0 0 8.31 8.32zm0-12.45a3.32 3.32 0 0 1 3.34 2.83h-6.89a3.58 3.58 0 0 1 3.59-2.84zM161.69 47.14l-3.86-2.73a3.62 3.62 0 0 1-3.07 1.6 3.89 3.89 0 0 1-4-3.82 3.8 3.8 0 0 1 4-3.72 3.62 3.62 0 0 1 3.07 1.6l3.86-2.76a8.38 8.38 0 0 0-6.93-3.38c-4.57 0-8.67 3.24-8.67 8.26a8.69 8.69 0 0 0 15.6 4.95zM172.06 50.48a8.07 8.07 0 0 0 8.29-8.29 8.27 8.27 0 0 0-16.55 0 8 8 0 0 0 8.26 8.29zm0-11.91a3.63 3.63 0 1 1-3.58 3.62 3.53 3.53 0 0 1 3.58-3.62zM208.14 25.61v10.61a5.23 5.23 0 0 0-4.67-2.29c-4.09 0-7.71 3.24-7.71 8.36s3.62 8.26 7.71 8.26a5.25 5.25 0 0 0 4.67-2.32v2h4.71V25.61h-4.71zM204.35 46a3.82 3.82 0 0 1 0-7.64 3.61 3.61 0 0 1 3.65 3.83 3.71 3.71 0 0 1-3.65 3.81zM120.13 70a4.06 4.06 0 0 1-8.13 0V54.92h-5.08V70c0 5.32 4.3 8.73 9.14 8.73s9.08-3.41 9.08-8.73V54.92h-5V70zM138.69 62.16a5.32 5.32 0 0 0-4.61 2.66V62.5h-4.74v15.93h4.74V70c0-2.42 1.26-3.24 2.93-3.24s2.76 1.06 2.76 3.17v8.5h4.74v-9.52c.01-4.54-2.24-6.75-5.82-6.75z" transform="translate(-16.55 -16.28)"/><path class="cls-2" d="M132.16 46.22h4.71v15.93h-4.71z"/><path class="cls-2" d="M164.89 62.16a8.27 8.27 0 1 0 8.29 8.26 8 8 0 0 0-8.29-8.26zm0 11.91a3.63 3.63 0 1 1 3.62-3.65 3.52 3.52 0 0 1-3.62 3.64zM185.93 62.16a5.32 5.32 0 0 0-4.61 2.66V62.5h-4.74v15.93h4.74V70c0-2.42 1.26-3.24 2.93-3.24s2.75 1.06 2.75 3.18v8.5h4.74v-9.53c.03-4.54-2.22-6.75-5.81-6.75z" transform="translate(-16.55 -16.28)"/><circle class="cls-2" cx="134.52" cy="40.33" r="3.32"/><path class="cls-2" d="M190.79 34.69a8 8 0 0 0-2.29 1.77v-2.25h-4.75v16h4.75v-6.35a6.83 6.83 0 0 1 1-4 3.6 3.6 0 0 1 3.16-1.5h.92V33.9a6.2 6.2 0 0 0-2.79.79zM111.94 43.71h3.32l4.15 6.5h5.53l-4.69-7.4a8.21 8.21 0 0 0 4.66-7.57 8.29 8.29 0 0 0-8.54-8.47h-9.44v23.44h5v-6.5zm0-12.53h4a3.82 3.82 0 0 1 3.75 4.05 3.82 3.82 0 0 1-3.69 4.06h-4v-8.11z" transform="translate(-16.55 -16.28)"/></svg>